<svg xmlns="http://www.w3.org/2000/svg" viewBox="0 0 256 256" fill="none">
  <g fill="#211f20">
    <path d="M95 107c-16-8-36-7-53 2-13 7-23 17-30 29 11 10 24 16 39 18 19 2 37-4 50-17l12-12-18-20Z"/>
    <path d="M104 111c-9-18-9-39-1-59 6-15 16-28 29-38 10 11 16 25 17 40 2 20-5 39-19 53l-11 11-15-7Z"/>
  </g>
  <path d="m104 138 30-30" stroke="#fff" stroke-linecap="round" stroke-width="5"/>
  <path d="m54 130 28 1m45-82 2 27" stroke="#fff" stroke-linecap="round" stroke-width="5"/>
  <g transform="rotate(-45 146 128)">
    <rect x="72" y="94" width="148" height="68" rx="34" fill="#211f20"/>
    <path d="M146 96v64" stroke="#fff" stroke-width="5"/>
  </g>
</svg>
